<svg width="131" height="29" viewBox="0 0 131 29" fill="none" xmlns="http://www.w3.org/2000/svg">
<path d="M0.759205 28.5976H5.1451C5.94267 28.5976 6.38065 28.1151 6.58043 27.631L8.01575 24.4084H18.8621L20.2975 27.591C20.6571 28.3563 20.9752 28.5976 21.6928 28.5976H26.1187C26.7165 28.5976 27.0361 28.0736 26.7964 27.5511L14.3149 0.444325C14.195 0.203055 13.9153 0.0017395 13.6372 0.0017395H13.2376C12.9579 0.0017395 12.6798 0.203055 12.5599 0.444325L0.0784254 27.5511C-0.158234 28.0736 0.161409 28.5976 0.759205 28.5976ZM10.41 18.9314L13.4005 12.285H13.4405L16.471 18.9314H10.41Z" fill="currentColor"/>
<path d="M31.2176 27.8321C31.2176 28.2348 31.5372 28.5975 31.9752 28.5975H48.4845C48.9225 28.5975 49.2421 28.2348 49.2421 27.8321V23.4416C49.2421 23.039 48.9225 22.6763 48.4845 22.6763H37.4383V17.2393H46.5298C46.9278 17.2393 47.2874 16.9166 47.2874 16.474V12.0835C47.2874 11.6809 46.9278 11.3182 46.5298 11.3182H37.4383V6.32377H48.4845C48.9225 6.32377 49.2421 5.96109 49.2421 5.55846V1.16796C49.2421 0.765335 48.9225 0.402664 48.4845 0.402664H31.9752C31.5372 0.402664 31.2176 0.765335 31.2176 1.16796V27.8321Z" fill="currentColor"/>
<path d="M54.3412 27.4695C53.9816 27.9935 54.3412 28.5975 55.0189 28.5975H60.5619C60.8816 28.5975 61.1198 28.3961 61.2396 28.2348L66.3432 20.0992H66.4231L71.6465 28.2348C71.7664 28.4361 72.086 28.5975 72.3242 28.5975H77.8673C78.505 28.5975 78.8646 28.0335 78.505 27.4695L70.1313 14.1382L78.2269 1.53064C78.5865 1.00661 78.2269 0.402664 77.5492 0.402664H71.7264C71.4467 0.402664 71.1686 0.603976 71.0887 0.765335L66.4246 8.257H66.3847L61.799 0.765335C61.6791 0.603976 61.441 0.402664 61.1613 0.402664H55.3385C54.6608 0.402664 54.3412 1.00661 54.6608 1.53064L62.7165 14.1382L54.3412 27.4695Z" fill="currentColor"/>
<path d="M80.5212 14.5407C80.5212 22.5964 86.8619 29 94.8376 29C102.813 29 109.194 22.5964 109.194 14.5407C109.194 6.48509 102.813 0 94.8376 0C86.8619 0 80.5212 6.48509 80.5212 14.5407ZM86.9018 14.5407C86.9018 10.1103 90.4901 6.44514 94.8376 6.44514C99.2235 6.44514 102.813 10.1103 102.813 14.5407C102.813 18.9312 99.225 22.5564 94.8376 22.5564C90.4901 22.5564 86.9018 18.9312 86.9018 14.5407Z" fill="currentColor"/>
<path d="M114.021 27.8321C114.021 28.2348 114.341 28.5975 114.778 28.5975H129.773C130.211 28.5975 130.53 28.2348 130.53 27.8321V23.4416C130.53 23.039 130.211 22.6763 129.773 22.6763H120.282V1.16796C120.282 0.765335 119.922 0.402664 119.524 0.402664H114.778C114.339 0.402664 114.021 0.765335 114.021 1.16796V27.8321Z" fill="currentColor"/>
</svg>
