<svg width="24" height="24" viewBox="0 0 24 24" fill="none" xmlns="http://www.w3.org/2000/svg">
<g clip-path="url(#clip0_837_38321)">
<path d="M10.7094 0.385067L5.5322 0.254235C5.08961 0.24305 4.69019 0.518324 4.54312 0.935927L0.0882649 13.5849C-0.262702 14.5814 0.476667 15.6257 1.53318 15.6257H3.56362C4.20161 15.6257 4.68345 16.2042 4.56804 16.8317L3.51544 22.5558C3.31179 23.6633 4.78756 24.2369 5.38534 23.2827L12.7089 11.5921C13.348 10.5718 12.6146 9.24691 11.4107 9.24691H10.5648C9.86785 9.24691 9.37565 8.56414 9.59591 7.90289L11.6525 1.72877C11.8694 1.07777 11.3953 0.402402 10.7094 0.385067Z" fill="#05A5E9"/>
<path d="M22.7761 8.18923C22.0402 6.82391 20.9933 5.77917 19.6352 5.05496C18.7078 4.55418 17.658 4.22512 16.4858 4.06782L12.6459 3.8125L11.3113 7.7173C12.3643 7.7173 15.8805 7.89242 16.5984 8.24264C17.3223 8.58694 17.8697 9.15087 18.2406 9.93444C18.6116 10.7121 18.797 11.7568 18.797 13.0687C18.797 14.3806 18.6116 15.4313 18.2406 16.2208C17.8757 17.0044 17.3343 17.5712 16.6163 17.9215C15.9044 18.2658 15.0339 18.4379 14.0049 18.4379H10.4757L7.98047 22.1955H14.8071C16.6737 22.1955 18.2861 21.8334 19.6442 21.1092C21.0022 20.379 22.0462 19.3313 22.7761 17.966C23.512 16.6007 23.8799 14.9683 23.8799 13.0687C23.8799 11.1751 23.512 9.5486 22.7761 8.18923Z" fill="#3983F6"/>
</g>
<defs>
<clipPath id="clip0_837_38321">
<rect width="24" height="24" fill="white"/>
</clipPath>
</defs>
</svg>
