<svg width="24" height="24" viewBox="0 0 24 24" fill="none" xmlns="http://www.w3.org/2000/svg">
<path d="M2.10835 22.2431C0.787612 20.7278 0.935625 18.4175 2.43895 17.0831L10.0948 10.2873C11.5982 8.95282 13.8875 9.09949 15.2083 10.6149C16.529 12.1302 16.381 14.4405 14.8777 15.7749L7.22176 22.5707C5.71844 23.9052 3.42909 23.7585 2.10835 22.2431Z" fill="#475AFF" fill-opacity="0.6"/>
<path d="M14.6055 4.52684C14.5924 2.05092 16.5888 0.0133683 19.0648 6.54601e-05C21.5407 -0.0132374 23.5585 2.00274 23.5716 4.47867C23.5846 6.9546 21.5882 8.99214 19.1123 9.00544C16.6363 9.01875 14.6185 7.00277 14.6055 4.52684Z" fill="#475AFF"/>
<path d="M2.18959 1.42105C3.66629 0.0764428 5.94247 0.19339 7.27359 1.68227L15.2379 10.5905C16.5691 12.0794 16.451 14.3764 14.9743 15.721C13.4977 17.0656 11.2215 16.9487 9.89032 15.4598L1.92599 6.55155C0.594874 5.06267 0.712893 2.76567 2.18959 1.42105Z" fill="#475AFF"/>
</svg>
