<svg width="24" height="24" viewBox="0 0 24 24" fill="none" xmlns="http://www.w3.org/2000/svg">
<path fill-rule="evenodd" clip-rule="evenodd" d="M13.0254 0.283L17.3707 2.76767L21.716 5.26833C22.348 5.63 22.7274 6.275 22.7274 6.99833V16.9853C22.7274 17.7243 22.348 18.3537 21.716 18.731L17.3707 21.216L13.0254 23.7163C12.4087 24.0937 11.6664 24.0937 11.0344 23.7163L6.6887 21.216L2.34336 18.731C1.69536 18.3537 1.33203 17.7243 1.33203 16.9853V6.99833C1.33203 6.275 1.69536 5.63 2.34336 5.26833L6.6887 2.76767L11.0344 0.283C11.6664 -0.0943333 12.409 -0.0943333 13.0254 0.283ZM15.3637 14.8463C15.6012 14.8457 15.835 14.9052 16.0434 15.0193L19.4087 11.9997L16.5487 9.42033L17.0544 8.87L20.2144 11.7167C20.3567 11.858 20.3727 12.094 20.2304 12.2513L20.2147 12.267L16.5647 15.554C16.6594 15.7427 16.7224 15.963 16.7224 16.199C16.7224 16.938 16.122 17.5357 15.3634 17.5357C15.1874 17.5362 15.013 17.502 14.8503 17.4351C14.6875 17.3682 14.5395 17.2699 14.4148 17.1457C14.2901 17.0216 14.191 16.8741 14.1233 16.7116C14.0557 16.5492 14.0207 16.375 14.0204 16.199C14.019 16.0218 14.0527 15.846 14.1197 15.6819C14.1866 15.5178 14.2853 15.3685 14.4102 15.2428C14.5351 15.117 14.6837 15.0172 14.8473 14.9492C15.011 14.8812 15.1865 14.8462 15.3637 14.8463ZM7.93703 8.98L4.65036 11.9997L7.51036 14.563L7.0047 15.1137L3.86036 12.2987L3.81303 12.2513C3.77948 12.2144 3.75363 12.1712 3.73702 12.1241C3.7204 12.0771 3.71334 12.0272 3.71626 11.9774C3.71918 11.9276 3.73201 11.8789 3.75401 11.8341C3.77601 11.7893 3.80673 11.7494 3.84436 11.7167L7.4157 8.44533C7.31352 8.24557 7.25942 8.0247 7.2577 7.80033C7.25814 7.62231 7.29363 7.44611 7.36217 7.2818C7.4307 7.11749 7.53092 6.96828 7.65712 6.84271C7.78331 6.71713 7.93301 6.61764 8.09765 6.54992C8.2623 6.48219 8.43867 6.44756 8.6167 6.448C9.35936 6.448 9.9597 7.06133 9.9597 7.80033C9.9597 8.53967 9.35937 9.153 8.61637 9.153C8.37894 9.15363 8.14523 9.09411 7.93703 8.98ZM15.2057 9.29467L9.81736 15.5853C9.91236 15.7587 9.9597 15.9787 9.9597 16.1987C9.95944 16.3747 9.92446 16.549 9.85679 16.7115C9.78911 16.874 9.69005 17.0215 9.56528 17.1457C9.44051 17.2699 9.29247 17.3683 9.12965 17.4352C8.96682 17.5021 8.7924 17.5362 8.61637 17.5357C7.85803 17.5357 7.2577 16.938 7.2577 16.199C7.2577 15.444 7.85803 14.8463 8.6167 14.8463C8.6957 14.8463 8.7747 14.8463 8.85336 14.862L14.1944 8.61833C14.0799 8.41701 14.02 8.18926 14.0207 7.95767C14.0194 7.78047 14.0532 7.60476 14.1201 7.44068C14.187 7.27659 14.2858 7.12739 14.4107 7.00167C14.5355 6.87595 14.6841 6.7762 14.8477 6.70817C15.0113 6.64015 15.1868 6.6052 15.364 6.60533C16.1224 6.60533 16.7227 7.20267 16.7227 7.95767C16.7227 8.697 16.1224 9.29433 15.3637 9.29433L15.2057 9.29467Z" fill="#0080FF"/>
</svg>
