<svg width="32" height="32" viewBox="0 0 32 32" fill="none" xmlns="http://www.w3.org/2000/svg"><path d="M15.965.432C7.148.432.004 7.575.004 16.393c0 7.064 4.569 13.029 10.914 15.144.798.14 1.097-.339 1.097-.758 0-.38-.02-1.637-.02-2.973-4.01.738-5.048-.977-5.367-1.876-.18-.458-.958-1.875-1.636-2.254-.56-.3-1.357-1.038-.02-1.057 1.257-.02 2.155 1.157 2.454 1.636 1.436 2.413 3.731 1.735 4.649 1.316.14-1.037.559-1.735 1.017-2.134-3.551-.4-7.262-1.776-7.262-7.882 0-1.735.618-3.172 1.636-4.29-.16-.397-.718-2.033.16-4.229 0 0 1.336-.419 4.39 1.637a14.81 14.81 0 0 1 3.989-.539c1.358 0 2.714.179 3.99.539 3.053-2.076 4.39-1.637 4.39-1.637.878 2.196.32 3.832.16 4.23 1.017 1.117 1.636 2.534 1.636 4.29 0 6.125-3.731 7.481-7.282 7.88.577.5 1.076 1.457 1.076 2.954 0 2.134-.02 3.85-.02 4.389 0 .42.3.917 1.098.758a15.984 15.984 0 0 0 10.874-15.143c0-8.818-7.145-15.962-15.962-15.962Z" fill="currentColor"/></svg>