<svg width="32" height="32" viewBox="0 0 32 32" fill="none" xmlns="http://www.w3.org/2000/svg"><path d="M30.226 0H1.782A1.778 1.778 0 0 0 .004 1.778v28.444A1.778 1.778 0 0 0 1.782 32h28.444a1.778 1.778 0 0 0 1.778-1.778V1.778A1.778 1.778 0 0 0 30.226 0ZM26.59 7.582l-1.717 1.645a.496.496 0 0 0-.189.481V21.8a.499.499 0 0 0 .189.482l1.674 1.646v.363h-8.428v-.363l1.737-1.685c.172-.17.172-.222.172-.482v-9.774L15.2 24.247h-.655l-5.62-12.26v8.217a1.144 1.144 0 0 0 .314.944l2.26 2.74v.36H5.09v-.36l2.26-2.74a1.1 1.1 0 0 0 .291-.944v-9.5a.832.832 0 0 0-.27-.703L5.362 7.582v-.36h6.233l4.818 10.565L20.648 7.22h5.943v.361h-.002Z" fill="currentColor"/></svg>