<svg width="24" height="24" viewBox="0 0 24 24" fill="none" xmlns="http://www.w3.org/2000/svg">
<path d="M22.3976 0.407122C22.3096 0.283835 22.1932 0.183492 22.0584 0.114538C21.9235 0.0455834 21.774 0.0100337 21.6225 0.0108797H18.3482C17.9498 0.0108797 17.5834 0.268003 17.4542 0.642818L11.8752 16.7571L6.21007 0.632259C6.14554 0.44684 6.02467 0.286223 5.86438 0.172864C5.70408 0.0595048 5.51237 -0.000930155 5.31604 1.08237e-05H1.94488C1.63279 1.08237e-05 1.35269 0.149999 1.16948 0.396563C1.08453 0.520416 1.02962 0.662356 1.00908 0.811127C0.988544 0.959897 1.00295 1.11141 1.05116 1.25364L9.08562 23.3786C9.14966 23.5613 9.26922 23.7195 9.42758 23.8309C9.58593 23.9423 9.77516 24.0014 9.96878 24H13.5337C13.9324 24 14.2877 23.7537 14.4172 23.3786L22.4948 1.25364C22.5482 1.11225 22.5654 0.959716 22.5447 0.809992C22.5239 0.660268 22.466 0.518127 22.3762 0.396563L22.3976 0.407122Z" fill="#17C1FF"/>
</svg>
